<svg xmlns="http://www.w3.org/2000/svg" width="260" height="260" fill="none" viewBox="0 0 260 260"><rect width="260" height="260" fill="#2563EB" rx="60"/><path stroke="#fff" stroke-linecap="round" stroke-linejoin="round" stroke-width="20" d="M185.75 85.5V60C185.75 44.7 173.05 32 157.75 32C142.45 32 129.75 44.7 129.75 60V85.5M201.106 73.507L213.012 193.5C213.432 201.475 207.262 208.243 199.262 208.243H60.7376C52.7376 208.243 46.5676 201.475 46.9876 193.5L58.8936 73.507C59.2736 66.382 65.1386 60.75 72.2736 60.75H187.726C194.861 60.75 200.726 66.382 201.106 73.507ZM91.875 85.5C90.8395 85.5 90 84.6605 90 83.625C90 82.5895 90.8395 81.75 91.875 81.75C92.9105 81.75 93.75 82.5895 93.75 83.625C93.75 84.6605 92.9105 85.5 91.875 85.5ZM168.125 85.5C167.09 85.5 166.25 84.6605 166.25 83.625C166.25 82.5895 167.09 81.75 168.125 81.75C169.16 81.75 170 82.5895 170 83.625C170 84.6605 169.16 85.5 168.125 85.5Z"/><path fill="#fff" d="M146.48 40.499C146.699 39.9148 147.105 39.4163 147.636 39.0758C148.167 38.7353 148.794 38.5712 149.425 38.6099C150.056 38.6487 150.657 38.8884 151.138 39.2935C151.62 39.6986 151.958 40.2452 152.098 40.857L164.813 88.042C164.931 88.557 164.883 89.0979 164.677 89.5839C164.47 90.0699 164.115 90.4747 163.663 90.7401L140.798 104.238C140.344 104.504 139.819 104.624 139.295 104.58C138.771 104.536 138.271 104.33 137.871 104.001L116.232 87.7711C115.832 87.4416 115.548 86.9949 115.418 86.4943C115.288 85.9938 115.319 85.468 115.506 84.9868L146.48 40.499Z"/></svg>