<svg xmlns="http://www.w3.org/2000/svg" width="1200" height="630" fill="none" viewBox="0 0 1200 630"><rect width="1200" height="630" fill="#2563EB"/><rect width="1000" height="430" x="100" y="100" fill="#fff" rx="20"/><g><path stroke="#2563EB" stroke-linecap="round" stroke-linejoin="round" stroke-width="10" d="M85.75 55.5V30C85.75 14.7 73.05 2 57.75 2C42.45 2 29.75 14.7 29.75 30V55.5M101.106 43.507L113.012 163.5C113.432 171.475 107.262 178.243 99.262 178.243H-39.2624C-47.2624 178.243 -53.4324 171.475 -53.0124 163.5L-41.1064 43.507C-40.7264 36.382 -34.8614 30.75 -27.7264 30.75H87.726C94.861 30.75 100.726 36.382 101.106 43.507ZM-8.125 55.5C-9.1605 55.5 -10 54.6605 -10 53.625C-10 52.5895 -9.1605 51.75 -8.125 51.75C-7.0895 51.75 -6.25 52.5895 -6.25 53.625C-6.25 54.6605 -7.0895 55.5 -8.125 55.5ZM68.125 55.5C67.09 55.5 66.25 54.6605 66.25 53.625C66.25 52.5895 67.09 51.75 68.125 51.75C69.16 51.75 70 52.5895 70 53.625C70 54.6605 69.16 55.5 68.125 55.5Z" transform="translate(150, 220)"/><path fill="#2563EB" d="M46.48 10.499C46.699 9.9148 47.105 9.4163 47.636 9.0758C48.167 8.7353 48.794 8.5712 49.425 8.6099C50.056 8.6487 50.657 8.8884 51.138 9.2935C51.62 9.6986 51.958 10.2452 52.098 10.857L64.813 58.042C64.931 58.557 64.883 59.0979 64.677 59.5839C64.47 60.0699 64.115 60.4747 63.663 60.7401L40.798 74.238C40.344 74.504 39.819 74.624 39.295 74.58C38.771 74.536 38.271 74.33 37.871 74.001L16.232 57.7711C15.832 57.4416 15.548 56.9949 15.418 56.4943C15.288 55.9938 15.319 55.468 15.506 54.9868L46.48 10.499Z" transform="translate(150, 220)"/></g><text x="320" y="240" fill="#2563EB" font-family="Arial" font-size="50" font-weight="bold">Caserito</text><text x="320" y="310" fill="#333" font-family="Arial" font-size="30">Compra como siempre.</text><text x="320" y="350" fill="#2563EB" font-family="Arial" font-size="30" font-weight="bold">Seguro como nunca.</text><text x="320" y="400" fill="#666" font-family="Arial" font-size="20">Compras seguras con vendedores informales</text></svg>